<svg width="17" height="17" viewBox="0 0 17 17" fill="none" xmlns="http://www.w3.org/2000/svg">
<g clip-path="url(#clip0_43_3535)">
<path d="M7.64959 12.5906C7.91521 12.5906 8.15428 12.8031 8.15428 13.0953C8.15428 13.3609 7.94178 13.6 7.64959 13.6C7.38396 13.6 7.1449 13.3875 7.1449 13.0953C7.1449 12.8031 7.38396 12.5906 7.64959 12.5906ZM15.459 9.50938C15.1933 9.50938 14.9543 9.29688 14.9543 9.00469C14.9543 8.73907 15.1668 8.5 15.459 8.5C15.7246 8.5 15.9637 8.7125 15.9637 9.00469C15.9637 9.27032 15.7246 9.50938 15.459 9.50938ZM15.459 7.46407C14.609 7.46407 13.9183 8.15469 13.9183 9.00469C13.9183 9.16407 13.9449 9.32344 13.998 9.48282L8.92459 12.1922C8.6324 11.7672 8.15428 11.5281 7.64959 11.5281C7.06521 11.5281 6.53396 11.8734 6.26834 12.3781L1.69959 9.9875C1.22146 9.72188 0.84959 8.95157 0.902715 8.20782C0.929277 7.83594 1.06209 7.54375 1.24803 7.4375C1.38084 7.35782 1.51365 7.38438 1.69959 7.46407L1.72615 7.49063C2.94803 8.12813 6.90584 10.2 7.06521 10.2797C7.33084 10.3859 7.46365 10.4391 7.91521 10.2266L16.0965 5.97657C16.2293 5.92344 16.3621 5.81719 16.3621 5.63125C16.3621 5.39219 16.123 5.28594 16.123 5.28594C15.6449 5.07344 14.9277 4.72813 14.2371 4.40938C12.7496 3.71875 11.0496 2.92188 10.3058 2.52344C9.66834 2.17813 9.13709 2.47032 9.0574 2.52344L8.87146 2.60313C5.49803 4.30313 1.03553 6.50782 0.769902 6.66719C0.31834 6.93282 0.0261521 7.49063 -0.000410389 8.18125C-0.0535354 9.27032 0.504277 10.4125 1.30115 10.8109L6.13553 13.3078C6.24178 14.0516 6.90584 14.6359 7.64959 14.6359C8.49959 14.6359 9.16365 13.9719 9.19021 13.1219L14.5027 10.2531C14.7683 10.4656 15.1137 10.5719 15.459 10.5719C16.309 10.5719 16.9996 9.88125 16.9996 9.03125C16.9996 8.15469 16.309 7.46407 15.459 7.46407Z" fill="#fff"/>
</g>
<defs>
<clipPath id="clip0_43_3535">
<rect width="17" height="17" fill="white"/>
</clipPath>
</defs>
</svg>
