<svg width="17" height="17" viewBox="0 0 17 17" fill="none" xmlns="http://www.w3.org/2000/svg">
<path fill-rule="evenodd" clip-rule="evenodd" d="M15.7229 7.48892C15.8928 7.73134 15.989 8.01773 15.9998 8.31357C16.0043 8.60315 15.9267 8.8881 15.7761 9.13546C15.6254 9.38281 15.4079 9.58249 15.1485 9.7114C15.1603 9.86531 15.1603 10.0199 15.1485 10.1738C15.1485 12.5281 12.4054 14.4409 9.02118 14.4409C5.63696 14.4409 2.89385 12.5281 2.89385 10.1738C2.88202 10.0199 2.88202 9.86531 2.89385 9.7114C2.6917 9.61852 2.51216 9.4828 2.36768 9.31364C2.22319 9.14448 2.11722 8.94593 2.0571 8.73175C1.99698 8.51756 1.98415 8.29286 2.0195 8.07322C2.05485 7.85359 2.13753 7.64426 2.26182 7.45976C2.38611 7.27525 2.54904 7.11998 2.7393 7.0047C2.92956 6.88942 3.14262 6.81688 3.3637 6.79213C3.58478 6.76737 3.80861 6.79098 4.01966 6.86133C4.23071 6.93167 4.42394 7.04706 4.58596 7.19951C5.797 6.37818 7.22174 5.92883 8.68486 5.90678L9.4626 2.25981C9.47133 2.21759 9.48836 2.17752 9.51269 2.14193C9.53702 2.10634 9.56818 2.07593 9.60435 2.05247C9.64052 2.02901 9.68099 2.01296 9.72341 2.00525C9.76583 1.99754 9.80936 1.99833 9.85147 2.00757L12.4264 2.52256C12.5522 2.30651 12.7508 2.14236 12.9867 2.05957C13.2225 1.97678 13.4802 1.98077 13.7134 2.07082C13.9466 2.16088 14.14 2.3311 14.259 2.55094C14.378 2.77078 14.4148 3.02583 14.3627 3.27032C14.3106 3.5148 14.173 3.73271 13.9747 3.88493C13.7765 4.03715 13.5304 4.11371 13.2808 4.10086C13.0311 4.08802 12.7942 3.98661 12.6126 3.81485C12.431 3.64309 12.3165 3.41221 12.2898 3.16367L10.0406 2.69072L9.3575 5.96984C10.8028 6.00084 12.2083 6.44984 13.4038 7.26257C13.6174 7.05758 13.8857 6.91875 14.1764 6.86281C14.4671 6.80687 14.7678 6.83622 15.0422 6.94731C15.3166 7.05841 15.553 7.2465 15.7229 7.48892ZM11.4118 10.4142C11.9919 10.4142 12.4621 9.94396 12.4621 9.36389C12.4621 8.78382 11.9919 8.31357 11.4118 8.31357C10.8317 8.31357 10.3615 8.78382 10.3615 9.36389C10.3615 9.94396 10.8317 10.4142 11.4118 10.4142ZM7.5937 9.36389C7.5937 9.94396 7.12346 10.4142 6.54338 10.4142C5.96331 10.4142 5.49307 9.94396 5.49307 9.36389C5.49307 8.78382 5.96331 8.31357 6.54338 8.31357C7.12346 8.31357 7.5937 8.78382 7.5937 9.36389ZM8.99961 12.505L8.99441 12.505L8.98922 12.505V12.505C8.24013 12.5096 7.68622 12.3417 7.32368 12.1773C7.14105 12.0945 7.00626 12.0122 6.91919 11.9525C6.87566 11.9227 6.84411 11.8985 6.82452 11.8828C6.81473 11.8749 6.80793 11.8692 6.80414 11.8659L6.80106 11.8632C6.68528 11.7576 6.50573 11.7654 6.39957 11.8809C6.2932 11.9966 6.3008 12.1767 6.41656 12.2831L6.41701 12.2835L6.41754 12.284L6.41882 12.2851L6.42227 12.2882L6.4328 12.2974C6.44141 12.3048 6.45324 12.3148 6.46828 12.3268C6.49835 12.351 6.54132 12.3837 6.59723 12.422C6.70901 12.4987 6.87271 12.5979 7.08857 12.6958C7.51924 12.8911 8.15477 13.0796 8.99441 13.0743C9.83405 13.0796 10.4696 12.8911 10.9003 12.6958C11.1161 12.5979 11.2798 12.4987 11.3916 12.422C11.4475 12.3837 11.4905 12.351 11.5205 12.3268C11.5356 12.3148 11.5474 12.3048 11.556 12.2974L11.5665 12.2882L11.57 12.2851L11.5713 12.284L11.5718 12.2835L11.5723 12.2831C11.688 12.1767 11.6956 11.9966 11.5893 11.8809C11.4831 11.7654 11.3035 11.7576 11.1878 11.8632L11.1847 11.8659C11.1809 11.8692 11.1741 11.8749 11.1643 11.8828C11.1447 11.8985 11.1132 11.9227 11.0696 11.9525C10.9826 12.0122 10.8478 12.0945 10.6651 12.1773C10.3026 12.3417 9.7487 12.5096 8.99961 12.505V12.505Z" fill="#fff"/>
</svg>
