<svg width="17" height="17" viewBox="0 0 17 17" fill="none" xmlns="http://www.w3.org/2000/svg">
<path fill-rule="evenodd" clip-rule="evenodd" d="M15.0368 3.33042C15.6976 3.50834 16.2187 4.02939 16.3966 4.69024C16.727 5.89755 16.7143 8.41384 16.7143 8.41384C16.7143 8.41384 16.7143 10.9174 16.3966 12.1247C16.2187 12.7856 15.6976 13.3066 15.0368 13.4846C13.8295 13.8023 9.00022 13.8023 9.00022 13.8023C9.00022 13.8023 4.18368 13.8023 2.96366 13.4718C2.30282 13.2939 1.78177 12.7729 1.60385 12.112C1.28613 10.9174 1.28613 8.40113 1.28613 8.40113C1.28613 8.40113 1.28613 5.89755 1.60385 4.69024C1.78177 4.02939 2.31553 3.49563 2.96366 3.31771C4.17097 3 9.00022 3 9.00022 3C9.00022 3 13.8295 3 15.0368 3.33042ZM11.4783 8.40113L7.46238 10.7141V6.08817L11.4783 8.40113Z" fill="#fff"/>
</svg>
