<svg width="491" height="73" viewBox="0 0 491 73" fill="none" xmlns="http://www.w3.org/2000/svg">
  <path d="M13.6801 59.8306H73.1001V72.8306H0.580078V0.410553H13.7701L13.6801 59.8306ZM79.9801 72.8306H93.0701V0.320557H79.9801V72.8306ZM153.73 0.310547H118.35C108.26 0.620547 100.05 9.11054 100.05 19.2405V20.6506H113.14V19.2405C113.14 16.2305 115.67 13.5605 118.58 13.4005H153.72C156.94 13.4005 159.56 16.0205 159.56 19.2405V53.8906C159.56 57.1106 156.94 59.7305 153.72 59.7305H118.75C115.65 59.5705 113.14 56.9506 113.14 53.8906V30.4606H100.05V53.8906C100.05 64.0806 108.08 72.4006 118.34 72.8206H153.74C164.18 72.8206 172.67 64.3306 172.67 53.8906V19.2405C172.66 8.81054 164.17 0.310547 153.73 0.310547ZM239.15 51.9406L192.36 0.770538L191.94 0.310547H179.63V13.4005H186.29L240.2 72.3605L240.62 72.8206H252.24V0.310547H239.15V51.9406ZM179.63 72.8306H192.72V30.4705H179.63V72.8306ZM318.74 54.0005C318.74 57.2205 316.12 59.8406 312.9 59.8406H278.15C274.93 59.8406 272.31 57.1805 272.31 53.9105V30.4805H259.22V53.9105C259.22 64.3505 267.71 72.8406 278.15 72.8406H312.9C323.28 72.8406 331.73 64.4806 331.73 54.2006V52.6005H318.73V54.0005H318.74ZM312.91 0.310547H278.26C267.77 0.310547 259.23 8.80054 259.23 19.2405V20.6506H272.32V19.2405C272.32 15.9105 274.87 13.4005 278.25 13.4005H312.9C316.12 13.4005 318.74 16.0205 318.74 19.2405V20.6506H331.74V19.0505C331.74 8.72054 323.29 0.310547 312.91 0.310547ZM338.81 13.4106H411.52V0.320557H338.81V13.4106ZM351.91 43.5605H401.15V30.4705H338.82V72.8306H411.43V59.7405H351.91V43.5605ZM471.2 0.310547H435.82C425.73 0.620547 417.52 9.11054 417.52 19.2405V20.6506H430.61V19.2405C430.61 16.2305 433.14 13.5605 436.05 13.4005H471.19C474.41 13.4005 477.03 16.0205 477.03 19.2405V53.8906C477.03 57.1106 474.41 59.7305 471.19 59.7305H436.22C433.12 59.5705 430.61 56.9506 430.61 53.8906V30.4606H417.52V53.8906C417.52 64.0806 425.55 72.4006 435.81 72.8206H471.21C481.65 72.8206 490.14 64.3306 490.14 53.8906V19.2405C490.13 8.81054 481.64 0.310547 471.2 0.310547Z" fill="url(#paint0_linear_204_372)"/>
  <defs>
  <linearGradient id="paint0_linear_204_372" x1="0.583078" y1="36.5728" x2="490.134" y2="36.5728" gradientUnits="userSpaceOnUse">
  <stop offset="0.1534" stop-color="#FD2EB2"/>
  <stop offset="0.2137" stop-color="#F437B3"/>
  <stop offset="0.3139" stop-color="#DA4EB7"/>
  <stop offset="0.4415" stop-color="#B174BD"/>
  <stop offset="0.5916" stop-color="#78A9C5"/>
  <stop offset="0.7588" stop-color="#2FEBD0"/>
  <stop offset="0.8052" stop-color="#1AFFD3"/>
  </linearGradient>
  </defs>
  </svg>
  