<svg width="1016" height="492" viewBox="0 0 1016 492" fill="none" xmlns="http://www.w3.org/2000/svg">
  <g clip-path="url(#clip0_174_68)">
  <g opacity="0.6">
  <path d="M1002.95 127.509V24.2395L979.399 0.689453H507.709H36.0195L12.4695 24.2395V127.509L0.689453 139.289V245.509V351.719L12.4695 363.499V466.769L36.0195 490.319H507.709H979.399L1002.95 466.769V363.499L1014.73 351.719V245.509V139.289L1002.95 127.509Z" fill="#0B121C"/>
  </g>
  <path d="M124.531 26.5396V59.7396L158.171 26.0996L124.531 26.5396Z" fill="#1AFFD3"/>
  <path d="M179.041 38.0188H182.321L191.251 29.0988H205.271L207.401 26.9688H190.261L179.041 38.0188Z" fill="#1AFFD3"/>
  <path opacity="0.1" d="M0.690391 132.04L8.71039 124.02V26.0996L0.650391 34.1596L0.690391 132.04Z" fill="#29ABE2"/>
  <path d="M890.89 26.5396V59.7396L857.25 26.0996L890.89 26.5396Z" fill="#1AFFD3"/>
  <path d="M507.711 1.0293H155.031L164.661 10.6493H202.701L206.551 6.7893H485.131L507.711 29.3793L530.291 6.7893H808.871L812.721 10.6493H850.761L860.391 1.0293H507.711Z" fill="#1AFFD3"/>
  <path d="M836.38 38.0188H833.099L824.169 29.0988H810.15L808.02 26.9688H825.15L836.38 38.0188Z" fill="#1AFFD3"/>
  <path opacity="0.1" d="M1014.73 132.04L1006.71 124.02V26.0996L1014.77 34.1596L1014.73 132.04Z" fill="#29ABE2"/>
  <path d="M890.89 464.469V431.279L857.25 464.909L890.89 464.469Z" fill="#1AFFD3"/>
  <path d="M836.38 452.99H833.099L824.169 461.92H810.15L808.02 464.05H825.15L836.38 452.99Z" fill="#1AFFD3"/>
  <path opacity="0.1" d="M1014.73 358.969L1006.71 366.989V464.909L1014.77 456.849L1014.73 358.969Z" fill="#29ABE2"/>
  <path d="M124.531 464.469V431.279L158.171 464.909L124.531 464.469Z" fill="#1AFFD3"/>
  <path d="M1002.95 93.5391V127.509L1014.73 139.289V158.119V169.189V185.339" stroke="#1AFFD3" stroke-width="1.3806" stroke-miterlimit="10"/>
  <path d="M970.24 0.689453H979.4L983.73 5.01945L997.32 18.6095L1002.95 24.2395V29.8795" stroke="#1AFFD3" stroke-width="1.3806" stroke-miterlimit="10"/>
  <path d="M1014.73 305.67V321.83V332.9V351.72L1002.95 363.5V397.47" stroke="#1AFFD3" stroke-width="1.3806" stroke-miterlimit="10"/>
  <path d="M970.24 490.319H979.4L983.73 485.989L997.32 472.409L1002.95 466.769V461.129" stroke="#1AFFD3" stroke-width="1.3806" stroke-miterlimit="10"/>
  <path d="M0.689453 305.67V321.83V332.9V351.72L12.4695 363.5V397.47" stroke="#1AFFD3" stroke-width="1.3806" stroke-miterlimit="10"/>
  <path d="M12.4695 93.5391V127.509L0.689453 139.289V158.119V169.189V185.339" stroke="#1AFFD3" stroke-width="1.3806" stroke-miterlimit="10"/>
  <path d="M12.4688 29.8795V24.2395L18.0988 18.6095L31.6888 5.01945L36.0187 0.689453H45.1787" stroke="#1AFFD3" stroke-width="1.3806" stroke-miterlimit="10"/>
  <path d="M507.71 47.1904L487.17 26.6504H190.26L124.87 92.9304H91.6602" stroke="#1AFFD3" stroke-width="1.3806" stroke-miterlimit="10"/>
  <path d="M507.711 47.1904L528.251 26.6504H825.151L890.551 92.9304H923.751" stroke="#1AFFD3" stroke-width="1.3806" stroke-miterlimit="10"/>
  <path d="M507.711 443.82L528.251 464.36H825.151L890.551 398.08H923.751" stroke="#1AFFD3" stroke-width="1.3806" stroke-miterlimit="10"/>
  <path d="M507.71 443.82L487.17 464.36H190.26L124.87 398.08H91.6602" stroke="#1AFFD3" stroke-width="1.3806" stroke-miterlimit="10"/>
  <path d="M12.4688 461.129V466.769L18.0988 472.409L31.6888 485.989L36.0187 490.319H45.1787" stroke="#1AFFD3" stroke-width="1.3806" stroke-miterlimit="10"/>
  <path d="M179.041 452.99H182.321L191.251 461.92H205.271L207.401 464.05H190.261L179.041 452.99Z" fill="#1AFFD3"/>
  <path opacity="0.1" d="M0.690391 358.969L8.71039 366.989V464.909L0.650391 456.849L0.690391 358.969Z" fill="#29ABE2"/>
  </g>
  <defs>
  <clipPath id="clip0_174_68">
  <rect width="1015.42" height="491.01" fill="white"/>
  </clipPath>
  </defs>
  </svg>
  