<svg width="198" height="60" viewBox="0 0 198 60" fill="none" xmlns="http://www.w3.org/2000/svg">
<g clip-path="url(#clip0_104_307)">
<path d="M175.159 2.74969L193.509 24.3297L175.009 56.3697H22.2094L3.70938 24.3297L22.0494 2.74969H175.159ZM175.769 1.42969H21.4494L2.10938 24.1797L21.4494 57.6697H175.769L195.109 24.1797L175.769 1.42969Z" fill="#FE268D"/>
<path opacity="0.14" d="M175.769 1.42969H21.4494L2.10938 24.1797L21.4494 57.6797H175.769L195.109 24.1797L175.769 1.42969Z" fill="#00FFFF"/>
<path d="M50.1485 34.7121C50.6759 34.7121 51.1048 34.6452 51.4354 34.5114C51.7738 34.3776 52.0375 34.2045 52.2264 33.9919C52.4153 33.7794 52.5452 33.5394 52.616 33.2718C52.6868 33.0042 52.7223 32.7326 52.7223 32.4572C52.7223 32.1423 52.679 31.859 52.5924 31.6071C52.5137 31.3553 52.372 31.1428 52.1674 30.9696C51.9706 30.7964 51.7069 30.6626 51.3764 30.5682C51.0458 30.4737 50.6286 30.4265 50.1249 30.4265H47.3387V34.7121H50.1485ZM47.3387 23.5082V27.7583H49.4166C49.8573 27.7583 50.2548 27.7269 50.609 27.6639C50.9631 27.6009 51.2622 27.4907 51.5062 27.3333C51.7581 27.1759 51.947 26.9595 52.0729 26.684C52.2067 26.4085 52.2736 26.0622 52.2736 25.6451C52.2736 25.2358 52.2225 24.8973 52.1201 24.6297C52.0178 24.3543 51.8604 24.1339 51.6479 23.9686C51.4354 23.8033 51.1639 23.6853 50.8333 23.6144C50.5106 23.5436 50.1249 23.5082 49.6763 23.5082H47.3387ZM49.6763 20.5212C50.8648 20.5212 51.8762 20.6314 52.7104 20.8518C53.5447 21.0722 54.2256 21.3831 54.7529 21.7845C55.2802 22.1859 55.662 22.6739 55.8981 23.2484C56.1421 23.823 56.2641 24.4645 56.2641 25.1728C56.2641 25.5585 56.209 25.9323 56.0988 26.2944C55.9886 26.6486 55.8154 26.9831 55.5793 27.2979C55.3432 27.6049 55.0402 27.8882 54.6702 28.1479C54.3003 28.4077 53.8556 28.632 53.3362 28.8209C54.4695 29.0964 55.3078 29.5411 55.8509 30.155C56.3939 30.7689 56.6655 31.5638 56.6655 32.5398C56.6655 33.2718 56.5238 33.9526 56.2405 34.5822C55.9571 35.2119 55.54 35.7629 54.989 36.2351C54.4459 36.6995 53.773 37.0655 52.9702 37.3331C52.1674 37.5928 51.2504 37.7227 50.2194 37.7227H43.3482V20.5212H49.6763ZM66.3446 34.5704C66.8798 34.5704 67.356 34.4839 67.7731 34.3107C68.1981 34.1297 68.5563 33.8739 68.8475 33.5433C69.1387 33.2127 69.3591 32.8113 69.5086 32.3391C69.666 31.859 69.7447 31.3159 69.7447 30.7099V20.5212H73.7352V30.7099C73.7352 31.7645 73.562 32.7326 73.2157 33.6142C72.8773 34.4957 72.3893 35.2552 71.7518 35.8927C71.1142 36.5302 70.339 37.0261 69.426 37.3803C68.513 37.7345 67.4858 37.9116 66.3446 37.9116C65.1955 37.9116 64.1644 37.7345 63.2514 37.3803C62.3384 37.0261 61.5631 36.5302 60.9256 35.8927C60.2881 35.2552 59.8001 34.4957 59.4617 33.6142C59.1232 32.7326 58.954 31.7645 58.954 30.7099V20.5212H62.9444V30.6981C62.9444 31.3041 63.0192 31.8472 63.1688 32.3273C63.3262 32.7995 63.5505 33.2049 63.8417 33.5433C64.1329 33.8739 64.4871 34.1297 64.9043 34.3107C65.3293 34.4839 65.8094 34.5704 66.3446 34.5704ZM85.0932 31.1821V37.7227H81.1027V31.1821L74.8691 20.5212H78.3873C78.7336 20.5212 79.0052 20.6039 79.2019 20.7692C79.4066 20.9266 79.5758 21.1312 79.7096 21.3831L82.1416 26.3888C82.3463 26.7824 82.5312 27.1523 82.6965 27.4986C82.8618 27.8371 83.0074 28.1716 83.1333 28.5021C83.2514 28.1637 83.3852 27.8253 83.5348 27.4868C83.6922 27.1405 83.8732 26.7745 84.0778 26.3888L86.4863 21.3831C86.5414 21.2808 86.6083 21.1784 86.687 21.0761C86.7657 20.9738 86.8562 20.8833 86.9585 20.8046C87.0687 20.718 87.1907 20.6511 87.3245 20.6039C87.4662 20.5488 87.6196 20.5212 87.7849 20.5212H91.3267L85.0932 31.1821ZM112.138 20.5212V37.7227H110.061C109.754 37.7227 109.494 37.6754 109.281 37.581C109.077 37.4787 108.872 37.3055 108.667 37.0615L100.557 26.8021C100.588 27.109 100.608 27.4081 100.616 27.6993C100.631 27.9827 100.639 28.2503 100.639 28.5021V37.7227H97.1211V20.5212H99.2226C99.3957 20.5212 99.5414 20.5291 99.6594 20.5449C99.7775 20.5606 99.8837 20.5921 99.9782 20.6393C100.073 20.6787 100.163 20.7377 100.25 20.8164C100.336 20.8951 100.435 21.0014 100.545 21.1352L108.726 31.4654C108.687 31.1349 108.66 30.8161 108.644 30.5092C108.628 30.1943 108.62 29.8992 108.62 29.6237V20.5212H112.138ZM132.358 29.116C132.358 30.3596 132.142 31.5166 131.709 32.587C131.284 33.6574 130.682 34.5901 129.903 35.3851C129.124 36.1721 128.183 36.79 127.081 37.2386C125.987 37.6872 124.771 37.9116 123.433 37.9116C122.095 37.9116 120.875 37.6872 119.773 37.2386C118.671 36.79 117.727 36.1721 116.94 35.3851C116.161 34.5901 115.555 33.6574 115.122 32.587C114.697 31.5166 114.484 30.3596 114.484 29.116C114.484 27.8725 114.697 26.7155 115.122 25.6451C115.555 24.5747 116.161 23.6459 116.94 22.8588C117.727 22.0718 118.671 21.4539 119.773 21.0053C120.875 20.5567 122.095 20.3323 123.433 20.3323C124.771 20.3323 125.987 20.5606 127.081 21.0171C128.183 21.4657 129.124 22.0836 129.903 22.8706C130.682 23.6577 131.284 24.5865 131.709 25.6569C132.142 26.7273 132.358 27.8803 132.358 29.116ZM128.274 29.116C128.274 28.266 128.163 27.5026 127.943 26.8257C127.723 26.1409 127.404 25.5624 126.987 25.0902C126.577 24.6179 126.074 24.2559 125.476 24.004C124.877 23.7522 124.197 23.6262 123.433 23.6262C122.662 23.6262 121.973 23.7522 121.367 24.004C120.769 24.2559 120.261 24.6179 119.844 25.0902C119.435 25.5624 119.12 26.1409 118.9 26.8257C118.679 27.5026 118.569 28.266 118.569 29.116C118.569 29.974 118.679 30.7453 118.9 31.43C119.12 32.1069 119.435 32.6815 119.844 33.1537C120.261 33.626 120.769 33.988 121.367 34.2399C121.973 34.4839 122.662 34.6059 123.433 34.6059C124.197 34.6059 124.877 34.4839 125.476 34.2399C126.074 33.988 126.577 33.626 126.987 33.1537C127.404 32.6815 127.723 32.1069 127.943 31.43C128.163 30.7453 128.274 29.974 128.274 29.116ZM157.704 20.5212L152.391 37.7227H148.778L145.543 27.0618C145.48 26.8965 145.421 26.7155 145.366 26.5187C145.311 26.3141 145.256 26.1016 145.201 25.8812C145.146 26.1016 145.091 26.3141 145.036 26.5187C144.981 26.7155 144.922 26.8965 144.859 27.0618L141.577 37.7227H137.964L132.651 20.5212H136.004C136.35 20.5212 136.638 20.5999 136.866 20.7574C137.102 20.9148 137.256 21.1233 137.326 21.3831L139.688 30.3557C139.758 30.639 139.829 30.9499 139.9 31.2884C139.971 31.6189 140.042 31.9652 140.113 32.3273C140.254 31.5874 140.427 30.9302 140.632 30.3557L143.418 21.3831C143.489 21.1627 143.639 20.9659 143.867 20.7928C144.103 20.6118 144.386 20.5212 144.717 20.5212H145.898C146.244 20.5212 146.523 20.6039 146.736 20.7692C146.948 20.9266 147.11 21.1312 147.22 21.3831L149.983 30.3557C150.187 30.9066 150.36 31.5324 150.502 32.2328C150.565 31.8787 150.628 31.5481 150.691 31.2411C150.762 30.9263 150.833 30.6312 150.903 30.3557L153.265 21.3831C153.328 21.1548 153.477 20.9541 153.713 20.781C153.949 20.6078 154.233 20.5212 154.563 20.5212H157.704Z" fill="white"/>
<path d="M149.41 57.6798C158.19 56.9698 166.97 56.5698 175.77 56.2698L174.55 56.9798C178.61 49.3798 184.31 39.0698 188.6 31.5998C190.19 28.7998 191.79 25.9998 193.43 23.2198L193.63 25.4498C189.13 20.1498 183.74 13.5898 179.36 8.18976L174.7 2.35977L175.78 2.85977C171.39 2.71977 166.99 2.52977 162.6 2.29977C158.21 2.06977 153.81 1.80977 149.42 1.43977C158.4 0.709766 167.39 0.289766 176.4 0.00976562C181.24 5.34977 187.05 11.8498 191.74 17.2798C192.36 17.9798 197 23.4098 197.49 23.9598C195.69 27.1698 193.84 30.3698 191.97 33.5398C187.64 40.9898 181.57 51.0898 177.01 58.3998L176.56 59.1298L175.78 59.1098C166.97 58.7898 158.19 58.3898 149.41 57.6798Z" fill="#17F2CB"/>
<path d="M48.06 57.68C39.28 58.39 30.5 58.79 21.7 59.09L20.92 59.11L20.47 58.38C15.92 51.06 9.84 40.98 5.51 33.52C3.65 30.36 1.8 27.16 0 23.95C0.48 23.44 5.15 17.94 5.75 17.27C10.43 11.84 16.25 5.33 21.09 0C30.09 0.29 39.08 0.7 48.07 1.43C43.68 1.8 39.28 2.06 34.89 2.29C30.49 2.52 26.1 2.71 21.7 2.85L22.78 2.35L18.12 8.18C13.73 13.58 8.34 20.13 3.85 25.44L4.05 23.21C5.69 25.98 7.29 28.78 8.88 31.59C13.17 39.06 18.87 49.37 22.93 56.97L21.71 56.26C30.5 56.56 39.28 56.96 48.06 57.68Z" fill="#17F2CB"/>
</g>
<defs>
<clipPath id="clip0_104_307">
<rect width="197.47" height="59.11" fill="white"/>
</clipPath>
</defs>
</svg>
