<svg width="569" height="78" viewBox="0 0 569 78" fill="none" xmlns="http://www.w3.org/2000/svg">
  <g clip-path="url(#clip0_120_613)">
  <path d="M535.372 70.8847H387.326V70.4598H535.26L546.68 53.2832H547.082L535.372 70.8847Z" fill="#1AFFD3"/>
  <path d="M537.126 77.9995H387.326V77.5655H537.007L553.275 53.2832H553.684L537.126 77.9995Z" fill="#1AFFD3"/>
  <path d="M555.967 40.6641L543.781 60.0827L540.316 60.6522L552.859 40.6641H555.967Z" fill="#1AFFD3"/>
  <path d="M552.799 40.555L552.829 40.5098H556.19L543.825 60.2087L540.078 60.8234L552.799 40.555ZM555.744 40.8081H552.903L540.569 60.4618L543.744 59.9374L555.744 40.8081Z" fill="#1AFFD3"/>
  <path d="M562.258 40.6641L550.057 60.1008L546.6 60.6703L559.157 40.6641H562.258Z" fill="#1AFFD3"/>
  <path d="M559.09 40.555L559.119 40.5098H562.48L550.101 60.2358L546.354 60.8505L559.09 40.555ZM562.041 40.8081H559.194L546.844 60.4799L550.019 59.9555L562.041 40.8081Z" fill="#1AFFD3"/>
  <path d="M568.786 40.6641L556.57 60.1279L553.105 60.6974L565.678 40.6641H568.786Z" fill="#1AFFD3"/>
  <path d="M565.618 40.555L565.648 40.5098H569.009L556.637 60.2177L556.614 60.2539L552.867 60.8686L565.618 40.555ZM568.562 40.8081H565.722L553.358 60.507L556.533 59.9826L568.562 40.8081Z" fill="#1AFFD3"/>
  <path d="M397.237 70.8847H34.7144L23.0117 53.2832H23.4132L34.8334 70.4598H397.237V70.8847Z" fill="#1AFFD3"/>
  <path d="M397.236 77.9995H32.9585L16.4082 53.2832H16.8097L33.0775 77.5655H397.236V77.9995Z" fill="#1AFFD3"/>
  <path d="M14.127 40.6641L26.3129 60.0827L29.7702 60.6522L17.2273 40.6641H14.127Z" fill="#1AFFD3"/>
  <path d="M30.0234 60.8332L26.2761 60.2184L13.9043 40.5195H17.2649L17.2947 40.5647L30.0234 60.8332ZM26.3579 59.9382L29.5327 60.4625L17.1906 40.8088H14.3504L26.3579 59.9382Z" fill="#1AFFD3"/>
  <path d="M7.82812 40.6641L20.0289 60.1008L23.4937 60.6703L10.936 40.6641H7.82812Z" fill="#1AFFD3"/>
  <path d="M23.7398 60.8603L19.9925 60.2455L7.61328 40.5195H10.9739L11.0036 40.5647L23.7398 60.8603ZM20.0743 59.9653L23.2491 60.4896L10.8921 40.8088H8.05195L20.0743 59.9653Z" fill="#1AFFD3"/>
  <path d="M1.30859 40.6641L13.5243 60.1279L16.9816 60.6974L4.40899 40.6641H1.30859Z" fill="#1AFFD3"/>
  <path d="M17.2273 60.8784L13.4801 60.2636L13.4578 60.2275L1.08594 40.5195H4.44655L4.47629 40.5647L17.2273 60.8784ZM13.5619 59.9834L16.7366 60.5077L4.3722 40.8088H1.53204L13.5619 59.9834Z" fill="#1AFFD3"/>
  <path d="M534.285 7.10547H386.232V7.5394H534.166L545.587 24.707H545.996L534.285 7.10547Z" fill="#1AFFD3"/>
  <path d="M536.04 0H386.232V0.424896H535.921L552.189 24.7072H552.598L536.04 0Z" fill="#1AFFD3"/>
  <path d="M554.874 37.3358L542.688 17.9172L539.23 17.3477L551.773 37.3358H554.874Z" fill="#1AFFD3"/>
  <path d="M538.984 17.1582L542.732 17.7729L555.096 37.4718H551.735L551.706 37.4266L538.984 17.1582ZM542.65 18.0532L539.475 17.5289L551.81 37.1825H554.65L542.65 18.0532Z" fill="#1AFFD3"/>
  <path d="M561.17 37.3376L548.969 17.9008L545.512 17.3223L558.069 37.3376H561.17Z" fill="#1AFFD3"/>
  <path d="M545.26 17.1406L549.007 17.7554L561.386 37.4814H558.026L557.996 37.4362L545.26 17.1406ZM548.925 18.0356L545.751 17.5113L558.1 37.1921H560.94L548.925 18.0356Z" fill="#1AFFD3"/>
  <path d="M567.692 37.3361L555.477 17.8723L552.02 17.3027L564.592 37.3361H567.692Z" fill="#1AFFD3"/>
  <path d="M551.773 17.1133L555.521 17.728L555.543 17.7642L567.915 37.4721H564.554L564.524 37.4269L551.773 17.1133ZM555.439 18.0083L552.264 17.4839L564.629 37.1828H567.469L555.439 18.0083Z" fill="#1AFFD3"/>
  <path d="M396.143 7.10547H33.6281L21.918 24.707H22.3269L33.747 7.5394H396.143V7.10547Z" fill="#1AFFD3"/>
  <path d="M396.144 0H31.8741L15.3164 24.7072H15.7253L31.9931 0.424896H396.144V0Z" fill="#1AFFD3"/>
  <path d="M13.041 37.3378L25.227 17.9191L28.6842 17.3496L16.1414 37.3378H13.041Z" fill="#1AFFD3"/>
  <path d="M16.2009 37.4364L16.1712 37.4816H12.8105L25.1749 17.7827L28.9222 17.168L16.2009 37.4364ZM13.2566 37.1923H16.0968L28.4389 17.5386L25.2642 18.063L13.2566 37.1923Z" fill="#1AFFD3"/>
  <path d="M6.74219 37.3376L18.943 17.9008L22.4003 17.3223L9.84258 37.3376H6.74219Z" fill="#1AFFD3"/>
  <path d="M9.90989 37.4362L9.88015 37.4814H6.51953L18.8988 17.7554L22.646 17.1406L9.90989 37.4362ZM6.96563 37.1921H9.8058L22.1553 17.5113L18.9806 18.0356L6.96563 37.1921Z" fill="#1AFFD3"/>
  <path d="M0.222656 37.3381L12.4383 17.8742L15.8956 17.3047L3.32305 37.3381H0.222656Z" fill="#1AFFD3"/>
  <path d="M3.38292 37.4367L3.35318 37.4819H0L12.3718 17.774L12.3941 17.7378L16.1414 17.123L3.38292 37.4367ZM0.438665 37.1926H3.27883L15.6432 17.4937L12.4685 18.018L0.438665 37.1926Z" fill="#1AFFD3"/>
  </g>
  <defs>
  <clipPath id="clip0_120_613">
  <rect width="569" height="78" fill="white"/>
  </clipPath>
  </defs>
  </svg>
  