<svg width="416" height="75" viewBox="0 0 416 75" fill="none" xmlns="http://www.w3.org/2000/svg">
  <g clip-path="url(#clip0_98_7)">
  <path d="M375.93 67.9991H104.02V67.5891H375.79L389.11 51.1191H389.59L375.93 67.9991Z" fill="#1AFFD3"/>
  <path d="M377.98 74.8191H104.02V74.4091H377.84L396.81 51.1191H397.29L377.98 74.8191Z" fill="#1AFFD3"/>
  <path d="M399.949 39L385.729 57.63L381.699 58.18L396.329 39H399.949Z" fill="#1AFFD3"/>
  <path d="M396.25 38.9091L396.28 38.8691H400.2L385.78 57.7691L381.41 58.3591L396.25 38.9091ZM399.69 39.1391H396.37L381.98 57.9991L385.68 57.4991L399.69 39.1391Z" fill="#1AFFD3"/>
  <path d="M407.29 39L393.06 57.65L389.02 58.2L403.67 39H407.29Z" fill="#1AFFD3"/>
  <path d="M403.6 38.9091L403.63 38.8691H407.55L393.11 57.7891L388.74 58.3791L403.6 38.9091ZM407.03 39.1391H403.71L389.31 58.0191L393.01 57.5191L407.03 39.1391Z" fill="#1AFFD3"/>
  <path d="M414.899 39L400.649 57.67L396.609 58.22L411.279 39H414.899Z" fill="#1AFFD3"/>
  <path d="M411.2 38.9091L411.23 38.8691H415.15L400.72 57.7791L400.69 57.8091L396.32 58.3991L411.2 38.9091ZM414.64 39.1391H411.32L396.9 58.0391L400.6 57.5391L414.64 39.1391Z" fill="#1AFFD3"/>
  <path d="M115.58 67.9991H40.4898L26.8398 51.1191H27.3098L40.6298 67.5891H115.58V67.9991Z" fill="#1AFFD3"/>
  <path d="M115.581 74.8191H38.4506L19.1406 51.1191H19.6106L38.5906 74.4091H115.581V74.8191Z" fill="#1AFFD3"/>
  <path d="M16.4785 39L30.6885 57.63L34.7285 58.18L20.0885 39H16.4785Z" fill="#1AFFD3"/>
  <path d="M35.0087 58.3591L30.6388 57.7691L16.2188 38.8691H20.1388L20.1688 38.9091L35.0087 58.3591ZM30.7388 57.4991L34.4387 57.9991L20.0487 39.1391H16.7288L30.7388 57.4991Z" fill="#1AFFD3"/>
  <path d="M9.12891 39L23.3689 57.65L27.3989 58.2L12.7489 39H9.12891Z" fill="#1AFFD3"/>
  <path d="M27.6889 58.3794L23.3189 57.7894L8.87891 38.8594H12.7989L12.8289 38.8994L27.6889 58.3794ZM23.4089 57.5194L27.1089 58.0194L12.7089 39.1394H9.38891L23.4089 57.5194Z" fill="#1AFFD3"/>
  <path d="M1.5293 39L15.7693 57.67L19.8093 58.22L5.1393 39H1.5293Z" fill="#1AFFD3"/>
  <path d="M20.0995 58.3994L15.7295 57.8094L15.6995 57.7794L1.26953 38.8594H5.18953L5.21953 38.8994L20.0995 58.3994ZM15.8195 57.5394L19.5195 58.0394L5.09953 39.1394H1.77953L15.8195 57.5394Z" fill="#1AFFD3"/>
  <path d="M374.66 6.82031H102.75V7.23031H374.52L387.85 23.7003H388.32L374.66 6.82031Z" fill="#1AFFD3"/>
  <path d="M376.71 0H102.75V0.41H376.57L395.54 23.7H396.02L376.71 0Z" fill="#1AFFD3"/>
  <path d="M398.68 35.8087L384.46 17.1887L380.43 16.6387L395.06 35.8087H398.68Z" fill="#1AFFD3"/>
  <path d="M380.141 16.459L384.511 17.049L398.931 35.949H395.011L394.981 35.909L380.141 16.459ZM384.411 17.319L380.711 16.819L395.101 35.669H398.421L384.411 17.319Z" fill="#1AFFD3"/>
  <path d="M406.02 35.8091L391.79 17.1691L387.75 16.6191L402.4 35.8091H406.02Z" fill="#1AFFD3"/>
  <path d="M387.471 16.4395L391.841 17.0295L406.281 35.9495H402.361L402.331 35.9095L387.471 16.4395ZM391.741 17.2995L388.041 16.7995L402.441 35.6795H405.761L391.741 17.2995Z" fill="#1AFFD3"/>
  <path d="M413.63 35.8096L399.38 17.1396L395.34 16.5996L410.01 35.8096H413.63Z" fill="#1AFFD3"/>
  <path d="M395.061 16.4199L399.431 17.0099L399.461 17.0399L413.891 35.9499H409.971L409.941 35.9099L395.061 16.4199ZM399.331 17.2799L395.631 16.7799L410.051 35.6799H413.371L399.331 17.2799Z" fill="#1AFFD3"/>
  <path d="M114.31 6.82031H39.2203L25.5703 23.7003H26.0403L39.3603 7.23031H114.31V6.82031Z" fill="#1AFFD3"/>
  <path d="M114.309 0H37.1791L17.8691 23.7H18.3391L37.3191 0.41H114.309V0Z" fill="#1AFFD3"/>
  <path d="M15.209 35.8087L29.419 17.1887L33.459 16.6387L18.829 35.8087H15.209Z" fill="#1AFFD3"/>
  <path d="M18.8992 35.909L18.8692 35.949H14.9492L29.3692 17.049L33.7392 16.459L18.8992 35.909ZM15.4592 35.679H18.7792L33.1692 16.829L29.4692 17.329L15.4592 35.679Z" fill="#1AFFD3"/>
  <path d="M7.86914 35.8091L22.0991 17.1691L26.1291 16.6191L11.4791 35.8091H7.86914Z" fill="#1AFFD3"/>
  <path d="M11.5594 35.9095L11.5294 35.9495H7.60938L22.0494 17.0295L26.4194 16.4395L11.5594 35.9095ZM8.11937 35.6795H11.4394L25.8394 16.7995L22.1394 17.2995L8.11937 35.6795Z" fill="#1AFFD3"/>
  <path d="M0.259766 35.8096L14.4998 17.1396L18.5398 16.5996L3.87977 35.8096H0.259766Z" fill="#1AFFD3"/>
  <path d="M3.95 35.9099L3.92 35.9499H0L14.43 17.0399L14.46 17.0099L18.83 16.4199L3.95 35.9099ZM0.51 35.6799H3.83L18.25 16.7799L14.55 17.2799L0.51 35.6799Z" fill="#1AFFD3"/>
  </g>
  <defs>
  <clipPath id="clip0_98_7">
  <rect width="415.15" height="74.82" fill="white"/>
  </clipPath>
  </defs>
  </svg>
  