<svg width="198" height="60" viewBox="0 0 198 60" fill="none" xmlns="http://www.w3.org/2000/svg">
<g clip-path="url(#clip0_155_1132)">
<mask id="mask0_155_1132" style="mask-type:luminance" maskUnits="userSpaceOnUse" x="0" y="0" width="198" height="60">
<path d="M197.47 0H0V59.11H197.47V0Z" fill="white"/>
</mask>
<g mask="url(#mask0_155_1132)">
<path d="M175.159 2.74969L193.509 24.3297L175.009 56.3697H22.2094L3.70937 24.3297L22.0494 2.74969H175.159ZM175.769 1.42969H21.4494L2.10938 24.1797L21.4494 57.6697H175.769L195.109 24.1797L175.769 1.42969Z" fill="#FE268D"/>
<path opacity="0.14" d="M175.769 1.42969H21.4494L2.10938 24.1797L21.4494 57.6797H175.769L195.109 24.1797L175.769 1.42969Z" fill="#00FFFF"/>
<path d="M149.41 57.6798C158.19 56.9698 166.97 56.5698 175.77 56.2698L174.55 56.9798C178.61 49.3798 184.31 39.0698 188.6 31.5998C190.19 28.7998 191.79 25.9998 193.43 23.2198L193.63 25.4498C189.13 20.1498 183.74 13.5898 179.36 8.18976L174.7 2.35977L175.78 2.85977C171.39 2.71977 166.99 2.52977 162.6 2.29977C158.21 2.06977 153.81 1.80977 149.42 1.43977C158.4 0.709766 167.39 0.289766 176.4 0.00976562C181.24 5.34977 187.05 11.8498 191.74 17.2798C192.36 17.9798 197 23.4098 197.49 23.9598C195.69 27.1698 193.84 30.3698 191.97 33.5398C187.64 40.9898 181.57 51.0898 177.01 58.3998L176.56 59.1298L175.78 59.1098C166.97 58.7898 158.19 58.3898 149.41 57.6798Z" fill="#17F2CB"/>
<path d="M48.06 57.68C39.28 58.39 30.5 58.79 21.7 59.09L20.92 59.11L20.47 58.38C15.92 51.06 9.84 40.98 5.51 33.52C3.65 30.36 1.8 27.16 0 23.95C0.48 23.44 5.15 17.94 5.75 17.27C10.43 11.84 16.25 5.33 21.09 0C30.09 0.29 39.08 0.7 48.07 1.43C43.68 1.8 39.28 2.06 34.89 2.29C30.49 2.52 26.1 2.71 21.7 2.85L22.78 2.35L18.12 8.18C13.73 13.58 8.34 20.13 3.85 25.44L4.05 23.21C5.69 25.98 7.29 28.78 8.88 31.59C13.17 39.06 18.87 49.37 22.93 56.97L21.71 56.26C30.5 56.56 39.28 56.96 48.06 57.68Z" fill="#17F2CB"/>
<path d="M29.81 36.18L35.894 23.4H32.672L28.262 32.58L23.852 23.4H20.63L26.732 36.18H29.81ZM37.8734 36H40.9154V23.4H37.8734V36ZM46.6635 33.462V30.96H53.6475V28.44H46.6635V25.938H54.8535V23.4H43.6215V36H54.9795V33.462H46.6635ZM63.7622 36.18L66.8582 28.062L69.9722 36.18H72.4022L77.2802 23.4H74.1122L71.0342 31.914L67.8662 23.4H65.8682L62.7002 31.914L59.6222 23.4H56.4542L61.3322 36.18H63.7622ZM82.695 23.4V25.902H88.203V36H91.245V25.92H96.753V23.4H82.695ZM98.5883 36H101.63V31.266H104.528L107.858 36H111.674L107.786 31.014C109.478 30.42 110.324 28.872 110.324 27.342C110.324 25.362 108.956 23.4 106.184 23.4H98.5883V36ZM101.63 25.938H105.446C106.598 25.938 107.174 26.64 107.174 27.342C107.174 28.044 106.598 28.746 105.446 28.746H101.63V25.938ZM112.827 36H116.049L116.931 34.164H123.987L124.869 36H128.091L122.007 23.22H118.929L112.827 36ZM120.459 26.82L122.763 31.626H118.155L120.459 26.82ZM130.071 36H133.113V23.4H130.071V36ZM138.861 33.462V23.4H135.819V36H146.925V33.462H138.861ZM151.974 33.462V30.96H158.958V28.44H151.974V25.938H160.164V23.4H148.932V36H160.29V33.462H151.974ZM162.485 36H165.527V31.266H168.425L171.755 36H175.571L171.683 31.014C173.375 30.42 174.221 28.872 174.221 27.342C174.221 25.362 172.853 23.4 170.081 23.4H162.485V36ZM165.527 25.938H169.343C170.495 25.938 171.071 26.64 171.071 27.342C171.071 28.044 170.495 28.746 169.343 28.746H165.527V25.938Z" fill="white"/>
</g>
</g>
<defs>
<clipPath id="clip0_155_1132">
<rect width="198" height="60" fill="white"/>
</clipPath>
</defs>
</svg>
